<?xml version="1.0" encoding="UTF-8" standalone="no"?>
<!-- Created with Inkscape (http://www.inkscape.org/) -->

<svg
   width="60.026001mm"
   height="28.666mm"
   viewBox="0 0 60.026 28.666"
   version="1.1"
   id="svg1"
   xml:space="preserve"
   sodipodi:docname="Actual-svg-logo.svg"
   inkscape:version="1.4.2 (ebf0e940d0, 2025-05-08)"
   xmlns:inkscape="http://www.inkscape.org/namespaces/inkscape"
   xmlns:sodipodi="http://sodipodi.sourceforge.net/DTD/sodipodi-0.dtd"
   xmlns="http://www.w3.org/2000/svg"
   xmlns:svg="http://www.w3.org/2000/svg"><sodipodi:namedview
     id="namedview1"
     pagecolor="#505050"
     bordercolor="#ffffff"
     borderopacity="1"
     inkscape:showpageshadow="0"
     inkscape:pageopacity="0"
     inkscape:pagecheckerboard="1"
     inkscape:deskcolor="#505050"
     inkscape:document-units="mm"
     inkscape:zoom="1.9724693"
     inkscape:cx="28.644299"
     inkscape:cy="-13.434937"
     inkscape:window-width="1908"
     inkscape:window-height="1036"
     inkscape:window-x="4"
     inkscape:window-y="36"
     inkscape:window-maximized="1"
     inkscape:current-layer="g1" /><defs
     id="defs1"><clipPath
       clipPathUnits="userSpaceOnUse"
       id="clipPath5"><path
         d="M 0,59.375 H 1051.875 V 394.0625 H 0 Z"
         transform="matrix(0.09310915,-0.01351793,0.01354455,0.09329253,149.67798,97.338374)"
         clip-rule="evenodd"
         id="path5" /></clipPath><clipPath
       clipPathUnits="userSpaceOnUse"
       id="clipPath7"><path
         d="M 0,59.375 H 1051.875 V 394.0625 H 0 Z"
         transform="matrix(0.09408532,0,0,0.09427063,30.136685,20.676528)"
         clip-rule="evenodd"
         id="path7" /></clipPath><clipPath
       clipPathUnits="userSpaceOnUse"
       id="clipPath9"><path
         d="M 0,59.375 H 1051.875 V 394.0625 H 0 Z"
         transform="matrix(0.09408532,0,0,0.09427063,30.136685,20.676528)"
         clip-rule="evenodd"
         id="path9" /></clipPath><clipPath
       clipPathUnits="userSpaceOnUse"
       id="clipPath11"><path
         d="M 0,59.375 H 1051.875 V 394.0625 H 0 Z"
         transform="matrix(0.09408532,0,0,0.09427063,29.436684,20.676528)"
         clip-rule="evenodd"
         id="path11" /></clipPath><clipPath
       clipPathUnits="userSpaceOnUse"
       id="clipPath13"><path
         d="M 0,59.375 H 1051.875 V 394.0625 H 0 Z"
         transform="matrix(0.09408532,0,0,0.09427063,30.136685,20.676528)"
         clip-rule="evenodd"
         id="path13" /></clipPath><clipPath
       clipPathUnits="userSpaceOnUse"
       id="clipPath15"><path
         d="M 0,59.375 H 1051.875 V 394.0625 H 0 Z"
         transform="matrix(0.09408532,0,0,0.09427063,30.136685,20.676528)"
         clip-rule="evenodd"
         id="path15" /></clipPath></defs><g
     id="g1"
     inkscape:groupmode="layer"
     inkscape:label="1"
     transform="matrix(0.26458333,0,0,0.26458334,-0.70693357,-5.0276243)"><g
       id="g2"
       transform="translate(2.6456693)"><path
         id="path2"
         d="m 16.737773,5.7047954 c -2.803819,0 -5.147569,-0.4783709 -7.0312501,-1.426415 C 7.8315228,3.3259874 6.4122519,2.0561301 5.4530505,0.46880844 4.5025296,-1.1054667 4.0294393,-2.8710902 4.0294393,-4.8193645 c 0,-1.4959962 0.2690973,-3.0267831 0.8159723,-4.5923606 0.5425347,-1.5655779 1.3541667,-3.1137599 2.4305557,-4.6445469 1.1197917,-1.530787 2.5043403,-2.92676 4.1493057,-4.192268 1.640625,-1.274207 3.42882,-2.296181 5.364584,-3.061574 1.944444,-0.765394 3.871527,-1.14809 5.78125,-1.14809 1.896701,0 3.302951,0.382696 4.21875,1.14809 0.911458,0.765393 1.371528,1.748228 1.371528,2.939806 0,0.708859 -0.169271,1.491648 -0.503472,2.348367 -0.338542,0.861067 -0.859375,1.717786 -1.562501,2.574505 -0.972222,1.243764 -2.170138,2.339669 -3.59375,3.287713 -1.41493,0.9523927 -2.912326,1.7003908 -4.496528,2.2439941 -1.588541,0.5349057 -3.168403,0.8001841 -4.739583,0.8001841 -0.256077,0 -0.499132,-0.00435 -0.729167,-0.017395 -0.221354,-0.021744 -0.46441,-0.052186 -0.729167,-0.086977 -0.138888,-0.034791 -0.203993,-0.1304648 -0.190972,-0.2957202 0.0217,-0.1739531 0.108507,-0.2435343 0.260417,-0.2087437 1.527778,0.1043718 3.159722,-0.1391624 4.895833,-0.7306028 1.736112,-0.6001381 3.385417,-1.4264151 4.947917,-2.4701335 1.571181,-1.043718 2.80382,-2.178762 3.697917,-3.40948 1.041667,-1.461205 1.5625,-2.804993 1.5625,-4.035711 0,-0.891509 -0.32118,-1.643856 -0.954861,-2.261389 -0.625,-0.613185 -1.631944,-0.921951 -3.020833,-0.921951 -1.831598,0 -3.602431,0.382696 -5.312501,1.14809 -1.714409,0.765393 -3.311632,1.765623 -4.791667,2.991992 -1.471354,1.230718 -2.725694,2.574506 -3.7673608,4.035711 -1.0069445,1.382927 -1.7795139,2.835435 -2.3090278,4.3662217 -0.5208334,1.5307869 -0.7812501,3.005039 -0.7812501,4.4184076 0,1.6482052 0.3689236,3.1746433 1.1111112,4.57496538 0.7508681,1.39162442 1.8923612,2.50492402 3.4201395,3.33989872 1.536458,0.8436723 3.498264,1.2698573 5.885416,1.2698573 2.64757,0 5.056424,-0.4609756 7.222223,-1.3742292 2.161458,-0.9176023 4.027778,-2.1657155 5.590278,-3.73999068 1.571181,-1.58732162 2.777778,-3.39643342 3.611111,-5.42733532 0.842014,-2.0395996 1.267361,-4.2009665 1.267361,-6.4884485 0,-0.961091 -0.03038,-1.900437 -0.0868,-2.81804 -0.04774,-0.913253 -0.221354,-1.800414 -0.520834,-2.661482 -0.416666,-1.308996 -0.94618,-2.670179 -1.579861,-4.087896 -0.625,-1.413369 -1.193576,-2.870226 -1.701389,-4.366222 -0.499132,-1.495996 -0.746527,-3.009388 -0.746527,-4.540175 0,-1.378578 0.277777,-2.757156 0.833333,-4.140083 0.737847,-1.678647 1.827257,-3.031132 3.263889,-4.053106 1.445312,-1.030672 3.133681,-1.548182 5.069445,-1.548182 0.716145,0 1.440972,0.104372 2.170139,0.313116 0.729166,0.200046 1.354166,0.539254 1.875,1.026323 0.520833,0.487068 0.78125,1.161136 0.78125,2.017855 0,0.604487 -0.190973,1.03937 -0.572917,1.304648 -0.373264,0.256581 -0.759549,0.382697 -1.163195,0.382697 -0.221354,0 -0.373263,-0.0174 -0.451388,-0.05219 l 0.173611,-1.130695 c 0,-0.9263 -0.273438,-1.622112 -0.815973,-2.087437 -0.546875,-0.474022 -1.245659,-0.713207 -2.100694,-0.713207 -1.041667,0 -2.065972,0.291371 -3.072917,0.869765 -1.006944,0.582743 -1.753472,1.317694 -2.239583,2.209204 -0.755209,1.382927 -1.128473,2.800644 -1.128473,4.26185 0,1.265508 0.212674,2.504924 0.642362,3.722595 0.425347,1.217671 0.94618,2.396203 1.5625,3.531247 0.625,1.139393 1.197916,2.226599 1.71875,3.270318 1.493055,2.844132 2.239583,5.810032 2.239583,8.906396 0,2.691924 -0.564236,5.1664055 -1.684028,7.4277953 -1.124132,2.252692 -2.673611,4.2053151 -4.652778,5.86221794 C 29.992982,2.1387578 27.709996,3.4260104 25.105829,4.3305663 22.510343,5.2438198 19.723884,5.7047954 16.737773,5.7047954 Z M 46.182219,0.45141313 c -2.165799,0 -3.693577,-0.5609986 -4.583334,-1.68734463 -0.451389,-0.4870686 -0.772569,-1.0654625 -0.954861,-1.7395306 -0.186632,-0.6697192 -0.277778,-1.3611826 -0.277778,-2.0700413 0,-0.8915094 0.108507,-1.7960653 0.329862,-2.7136677 0.230034,-0.9132535 0.512152,-1.7612747 0.850694,-2.5397149 0.520833,-1.239415 1.206597,-2.478831 2.065972,-3.722595 0.855035,-1.252462 1.892362,-2.304878 3.107639,-3.165946 1.215278,-0.856719 2.543403,-1.287252 3.993056,-1.287252 0.972222,0 1.736111,0.243534 2.291667,0.730602 0.564236,0.478371 0.850694,1.217672 0.850694,2.2266 0,1.161136 -0.355902,2.330971 -1.059028,3.513851 -0.707465,1.174183 -1.605902,2.1526694 -2.690972,2.939807 -1.08941,0.7784399 -2.204861,1.1654854 -3.350694,1.1654854 -1.054688,0 -1.974827,-0.3696502 -2.760417,-1.1132995 -0.221354,0.5914404 -0.407986,1.252462 -0.555556,1.9830648 -0.15191,0.7306029 -0.225694,1.4699034 -0.225694,2.2092038 0,1.1611367 0.230034,2.1700644 0.694444,3.0267832 0.473091,0.86106764 1.323785,1.28725263 2.552084,1.28725263 0.902777,0 1.770833,-0.2304878 2.604166,-0.69581223 0.842014,-0.4609756 1.601563,-1.0306719 2.274306,-1.7047399 0.737847,-0.7871376 1.445313,-1.6264611 2.118056,-2.5223194 0.681423,-0.8915094 1.336805,-1.9395765 1.961805,-3.1485503 0.07813,-0.1043718 0.138889,-0.1565577 0.173611,-0.1565577 0.14757,0 0.225695,0.1696042 0.225695,0.5044638 0,0.2217902 -0.07813,0.4653245 -0.225695,0.7306029 -0.555555,1.0089277 -1.210937,2.0309019 -1.961805,3.0615738 -0.742188,1.0219742 -1.506077,1.9047859 -2.291667,2.6440864 -0.707465,0.6740681 -1.471354,1.2176714 -2.291667,1.63515874 -0.824652,0.40444085 -1.779514,0.60883569 -2.864583,0.60883569 z M 44.289858,-9.8640031 c 0.251736,0.3826967 0.555555,0.6610216 0.902778,0.8349747 0.355902,0.1652554 0.729166,0.2435343 1.111111,0.2435343 0.889757,0 1.822916,-0.3392085 2.795139,-1.0263231 0.972222,-0.6958118 1.753472,-1.5133918 2.34375,-2.4527378 0.264757,-0.404441 0.494791,-0.943696 0.694444,-1.617764 0.208334,-0.669719 0.3125,-1.308996 0.3125,-1.913483 0,-0.521859 -0.104166,-0.974137 -0.3125,-1.356834 -0.199653,-0.391395 -0.598958,-0.591441 -1.197916,-0.591441 -0.672744,0 -1.467014,0.413139 -2.378473,1.235067 -0.915798,0.813231 -1.783854,1.874344 -2.604167,3.183341 -0.256076,0.452278 -0.546875,0.982835 -0.868055,1.582973 -0.3125,0.59144 -0.581597,1.217671 -0.798611,1.8786929 z M 65.782914,0.329646 c -1.076389,0 -1.927083,-0.33485964 -2.552083,-1.00892773 -0.61632,-0.66971927 -0.920139,-1.50469397 -0.920139,-2.50492397 0,-0.4870686 0.09115,-1.0480672 0.277778,-1.6873447 0.520833,-1.6438564 1.345486,-3.2790151 2.482639,-4.9054762 1.145833,-1.6221124 2.092014,-3.2355264 2.847222,-4.8358954 0.251736,-0.521859 0.381944,-0.991532 0.381944,-1.409019 0,-0.404441 -0.121527,-0.70451 -0.364583,-0.904556 -0.243056,-0.208744 -0.533854,-0.313116 -0.868056,-0.313116 -0.486111,0 -1.09375,0.200046 -1.822916,0.591441 -0.720486,0.382696 -1.545139,1.113299 -2.482639,2.191808 -0.555556,0.674068 -1.193577,1.495997 -1.909723,2.470134 -0.707465,0.974137 -1.284722,1.8526 -1.736111,2.6266908 -0.742187,1.2785549 -1.41493,2.5571099 -2.013889,3.8443625 -0.590278,1.2872526 -1.111111,2.4701334 -1.5625,3.5486424 -0.373264,0.8610676 -0.824653,1.40901971 -1.354167,1.65255399 -0.520833,0.24353428 -1.024305,0.34790611 -1.510416,0.31311549912 -0.486111,-0.0347906091 -0.859375,-0.0347906091 -1.111111,0 C 52.60583,-2.0535109 53.630136,-4.2148776 54.63708,-6.4893138 c 1.006945,-2.2831339 1.86632,-4.5619192 2.586806,-6.8363552 0.334201,-1.043718 0.611979,-2.056995 0.833333,-3.044178 0.217014,-0.995882 0.3125,-1.643857 0.277778,-1.948275 v -0.104371 c 0,-0.300069 0.14757,-0.374 0.451389,-0.226139 0.486111,0.269627 0.820313,0.656672 1.006945,1.165485 0.182291,0.500115 0.277777,1.061114 0.277777,1.687345 0,0.708858 -0.09549,1.469903 -0.277777,2.278785 -0.186632,0.800184 -0.412327,1.522089 -0.677084,2.157018 0.486111,-0.66972 1.006945,-1.356834 1.5625,-2.052646 0.564236,-0.695813 1.184896,-1.356834 1.857639,-1.983065 0.785591,-0.787138 1.623264,-1.469904 2.517361,-2.052646 0.902778,-0.578394 1.875001,-0.869766 2.916667,-0.869766 1.006945,0 1.740452,0.226139 2.204861,0.678417 0.473091,0.452278 0.711806,1.052416 0.711806,1.791717 0,0.791486 -0.225694,1.687344 -0.677083,2.696272 -0.486111,1.14809 -1.076389,2.304878 -1.770834,3.461666 -0.685764,1.1611366 -1.310764,2.278785 -1.875,3.357294 -0.104166,0.2348366 -0.277778,0.5827427 -0.520833,1.0437183 -0.243056,0.4653244 -0.46441,0.9741371 -0.659722,1.5307869 -0.06945,0.2696272 -0.14757,0.5392545 -0.225695,0.8175793 -0.06944,0.2783249 -0.104167,0.5696963 -0.104167,0.8697653 0,0.3739991 0.07813,0.7219052 0.243056,1.0437184 0.173611,0.31311546 0.503472,0.46967321 0.989583,0.46967321 0.633681,0 1.24132,-0.21309249 1.822917,-0.64362631 0.577257,-0.426185 1.067709,-0.8871606 1.475695,-1.3742291 0.868055,-0.9393465 1.657986,-1.9743672 2.378472,-3.1137597 0.729167,-1.1350437 1.449653,-2.3353198 2.170139,-3.6008283 0.104167,-0.1478601 0.173611,-0.226139 0.208333,-0.226139 0.14757,0 0.225695,0.1696043 0.225695,0.5044639 0,0.2217901 -0.03472,0.3913944 -0.104167,0.5044639 -0.672743,1.2307178 -1.384549,2.4353427 -2.135417,3.6182235 -0.742187,1.1741831 -1.657986,2.2961804 -2.743055,3.3746893 -0.486111,0.4870686 -1.050348,0.91760237 -1.684028,1.28725262 -0.625,0.36965024 -1.332466,0.55664978 -2.118056,0.55664978 z m -8.849827,18.421629 c -1.154514,0.417487 -2.330729,0.626231 -3.524305,0.626231 -1.640625,0 -3.11632,-0.395744 -4.427084,-1.182881 -1.306424,-0.77844 -1.961805,-1.974367 -1.961805,-3.583433 0,-0.304418 0.02604,-0.591441 0.06944,-0.869765 0.03472,-0.278325 0.104167,-0.587092 0.208333,-0.921952 0.117188,-0.25658 0.203993,-0.360952 0.260417,-0.313115 0.06076,0.05653 0.08681,0.160906 0.08681,0.313115 0,1.830856 0.625,3.22683 1.875,4.192269 1.25,0.974137 2.699653,1.461206 4.340278,1.461206 1.006944,0 1.974826,-0.169605 2.899305,-0.504464 1.540799,-0.521859 2.907986,-1.348136 4.097223,-2.470134 1.193576,-1.113299 2.217882,-2.304878 3.072916,-3.566037 0.824653,-1.195927 1.644966,-2.5832031 2.465278,-4.1574782 0.824653,-1.5655775 1.610243,-3.2094339 2.361112,-4.9228715 0.742187,-1.7177864 1.445312,-3.38338693 2.118055,-5.009848 0.668403,-1.6221123 1.25,-3.0659226 1.736111,-4.3314311 0.564237,-1.4612057 1.232639,-3.0485273 1.996528,-4.7663142 0.763889,-1.713437 1.605903,-3.435572 2.534723,-5.166405 0.9375,-1.739531 1.953125,-3.326852 3.055555,-4.766314 1.098091,-1.435113 2.243924,-2.609296 3.4375,-3.513852 0.868056,-0.669719 1.762153,-1.008927 2.690973,-1.008927 0.147569,0 0.286458,0 0.416666,0 0.138889,0 0.282118,0.04349 0.434028,0.121767 0.06945,0.03479 0.104167,0.08263 0.104167,0.139162 0,0.06088 -0.07813,0.08698 -0.225695,0.08698 -0.373263,0.03479 -0.815972,0.217441 -1.336805,0.539254 -0.520834,0.313116 -1.158854,0.974137 -1.909722,1.983065 -0.30382,0.44358 -0.967882,1.391624 -1.996528,2.85283 -1.019966,1.452508 -1.974827,3.200736 -2.864584,5.253382 1.076389,-1.226369 2.074653,-2.104832 3.003473,-2.626691 0.9375,-0.521859 1.779514,-0.782789 2.534722,-0.782789 1.189236,0 2.005208,0.304418 2.447917,0.904556 0.451389,0.591441 0.677083,1.33509 0.677083,2.226599 0,0.826277 -0.138889,1.70474 -0.416667,2.644087 -0.277777,0.930649 -0.616319,1.822158 -1.006944,2.678877 -0.394965,0.8610676 -0.759549,1.5916704 -1.09375,2.1918085 -0.256077,0.4870685 -0.651042,1.0698113 -1.180556,1.7395305 -0.520833,0.6610217 -1.119792,1.352485 -1.788194,2.0700414 0.112847,0.5218592 0.347222,0.8958582 0.694444,1.1132996 0.355903,0.2217901 0.78125,0.3305108 1.267361,0.3305108 0.520834,0 1.067709,-0.1087207 1.649306,-0.3305108 0.577257,-0.2174414 1.059028,-0.4957662 1.440972,-0.8349747 0.855035,-0.7175564 1.636285,-1.5568799 2.34375,-2.5223193 0.703125,-0.9741371 1.358507,-1.9830649 1.961806,-3.0267832 0.03472,-0.069581 0.05642,-0.1043718 0.06944,-0.1043718 0.0217,0 0.03472,0 0.03472,0 0.07813,0 0.121527,0.1652554 0.121527,0.4870685 0,0.152209 0,0.2957202 0,0.4348827 0,0.1304648 -0.0434,0.2522319 -0.121527,0.3653014 -0.625,1.1132995 -1.276042,2.1135296 -1.944445,2.9919926 -0.672743,0.8697652 -1.493056,1.6438563 -2.465278,2.3135756 -0.486111,0.3044178 -1.019965,0.5566498 -1.597222,0.7653934 -0.581597,0.2087437 -1.154514,0.3131155 -1.71875,0.3131155 -0.555556,0 -1.050347,-0.1217671 -1.475695,-0.3653014 -0.429687,-0.2435343 -0.737847,-0.6479751 -0.920139,-1.2176714 -0.63802,0.6044869 -1.397569,1.2133226 -2.274305,1.8265071 -0.881077,0.61753337 -1.783854,0.96543948 -2.708334,1.04371836 -0.151909,0.03479061 -0.295139,0.05218591 -0.434027,0.05218591 -0.130209,0 -0.243056,0 -0.347223,0 -1.310764,0 -2.113715,-0.50446386 -2.413194,-1.51339157 -0.568577,1.6003681 -1.354167,3.4094799 -2.361111,5.4273353 -1.006945,2.0178555 -2.196181,4.0226644 -3.57639,6.0187758 -1.375868,1.9917622 -2.934027,3.7834792 -4.670139,5.3751492 -1.736111,1.587322 -3.650173,2.752807 -5.746528,3.496457 z m 18.42014,-19.6566957 c 0.668403,0 1.354167,-0.2652784 2.048611,-0.8001841 0.694445,-0.5436033 1.362848,-1.2220202 2.013889,-2.0352507 0.646702,-0.8219282 1.258681,-1.678647 1.840278,-2.5745052 0.577257,-0.9045559 1.059028,-1.7090888 1.440972,-2.4179475 0.217014,-0.3696503 0.512153,-0.9567418 0.885417,-1.7569258 0.381945,-0.808882 0.716146,-1.678647 1.006945,-2.609296 0.299479,-0.939346 0.451388,-1.761275 0.451388,-2.470133 0,-0.521859 -0.09549,-0.9263 -0.277777,-1.217672 -0.186632,-0.300069 -0.538195,-0.452278 -1.059028,-0.452278 -0.603299,0 -1.284722,0.339209 -2.048611,1.008928 -0.763889,0.661022 -1.527778,1.495996 -2.291667,2.504924 -0.763889,1.008928 -1.467014,2.017856 -2.100695,3.026783 -0.151909,0.269627 -0.416666,0.7219054 -0.798611,1.3568341 -0.373264,0.626231 -0.755208,1.352485 -1.145833,2.1744132 -0.381945,0.826277 -0.720486,1.6482052 -1.006945,2.4701334 -0.277777,0.8132305 -0.416666,1.5394845 -0.416666,2.1744132 0,1.0785089 0.486111,1.6177634 1.458333,1.6177634 z M 95.84802,1.1124347 c -1.423612,0 -2.65191,-0.4522779 -3.680556,-1.35683379 C 91.147499,-1.1576526 90.639686,-2.57537 90.639686,-4.4888537 c 0,-1.1915784 0.212674,-2.4353427 0.642361,-3.7225954 0.425347,-1.2872526 0.902778,-2.4353429 1.423611,-3.4442709 0.972223,-1.817809 2.191841,-3.409479 3.663195,-4.766313 1.480035,-1.365532 3.246528,-2.052646 5.295137,-2.052646 1.97917,0 3.35938,0.539254 4.14931,1.617763 0.78559,1.078509 1.18055,2.40925 1.18055,3.983525 0,0.626231 -0.0608,1.278555 -0.17361,1.948274 -0.30382,1.835205 -0.9158,3.6095262 -1.84028,5.3229638 0.25174,0.3739991 0.59462,0.6784169 1.02431,0.9219512 0.42535,0.2435343 0.90278,0.3653014 1.42361,0.3653014 0.90278,0 1.67101,-0.2435343 2.30903,-0.7306028 0.63368,-0.4870686 1.18489,-1.0872066 1.6493,-1.8091118 0.46007,-0.7306028 0.85938,-1.4133686 1.19792,-2.0526461 0.23004,-0.4044408 0.43837,-0.6088357 0.625,-0.6088357 0.10417,0 0.15625,0.078279 0.15625,0.226139 0,0.1522089 -0.11285,0.4870686 -0.32986,1.0089277 -0.63802,1.2655085 -1.38455,2.3657616 -2.23958,3.3051081 -0.85938,0.9306488 -1.97917,1.3916244 -3.36806,1.3916244 -1.26302,0 -2.2309,-0.4435803 -2.8993,-1.3394385 -1.05469,1.7177864 -2.32639,3.157248 -3.81945,4.31403579 -1.493055,1.14809017 -3.116319,1.72213521 -4.86111,1.72213521 z m 0.104166,-0.66102157 c 1.827257,0 3.637153,-0.89585823 5.434024,-2.69627233 0.52084,-0.5218592 0.99393,-1.0698113 1.42362,-1.6525541 0.42534,-0.5783939 0.81597,-1.1654854 1.16319,-1.7569258 -0.48611,-0.5566498 -0.83333,-1.1567879 -1.04167,-1.8091118 -0.20833,-0.6610216 -0.3125,-1.2916015 -0.3125,-1.8960883 0,-0.9262998 0.16493,-1.7569258 0.50348,-2.4875288 0.3342,-0.730603 0.80295,-1.095904 1.40625,-1.095904 0.29947,0 0.59027,0.152209 0.86805,0.452278 0.27778,0.304418 0.45139,0.774091 0.52083,1.40902 0.11285,-0.52186 0.17362,-1.082858 0.17362,-1.687345 0,-1.413369 -0.26042,-2.539715 -0.78125,-3.374689 -0.52084,-0.843673 -1.40191,-1.269858 -2.63889,-1.269858 -0.74219,0 -1.50608,0.291372 -2.29167,0.869766 -0.789931,0.582742 -1.527778,1.282903 -2.222223,2.104832 -0.685763,0.81323 -1.284722,1.648205 -1.805555,2.504924 -0.520834,0.861067 -0.915799,1.574275 -1.180556,2.1396221 -0.638021,1.3829268 -1.09375,2.6092959 -1.371528,3.6878048 -0.277777,1.078509 -0.416666,2.030902 -0.416666,2.8528301 0,1.1959273 0.247396,2.1135297 0.746527,2.74845833 0.507813,0.63492865 1.115452,0.9567418 1.822917,0.9567418 z M 115.5008,0.55578497 c -1.49306,0 -2.5434,-0.40009203 -3.14236,-1.20027609 -0.59028,-0.80018408 -0.88542,-1.81346058 -0.88542,-3.04417848 0,-1.1219972 0.17361,-2.3657616 0.52083,-3.7225954 0.35591,-1.3655315 0.80295,-2.722365 1.33681,-4.070502 0.54253,-1.343787 1.08507,-2.574505 1.63194,-3.687804 0.54254,-1.121997 0.98091,-2.0396 1.31945,-2.748459 0.6684,-1.378578 1.51041,-2.96155 2.51736,-4.748918 1.00694,-1.796065 2.1224,-3.635619 3.35069,-5.514312 1.23698,-1.887391 2.55643,-3.674758 3.95834,-5.357754 1.39757,-1.678647 2.84722,-3.135504 4.34028,-4.366222 1.49305,-1.226369 2.98611,-2.070041 4.47916,-2.522319 0.40365,-0.113069 0.77257,-0.173953 1.11111,-0.173953 0.63368,0 1.16754,0.182651 1.59723,0.539254 0.42534,0.347907 0.64236,0.952393 0.64236,1.809112 0,0.604487 -0.14757,1.352485 -0.43403,2.243995 -0.48611,1.313345 -1.31076,2.761504 -2.46528,4.348826 -1.15885,1.578624 -2.52604,3.218132 -4.09722,4.922871 -1.5625,1.696043 -3.21181,3.365992 -4.94792,5.009849 -1.73611,1.648205 -3.42882,3.178992 -5.06944,4.59236 -1.64497,1.417718 -3.1033,2.626691 -4.375,3.635619 -0.22136,0.604487 -0.56858,1.487299 -1.04167,2.644086 -0.46441,1.1480907 -0.88108,2.3657621 -1.25,3.6530147 -0.37326,1.2872526 -0.55556,2.478831 -0.55556,3.5660376 0,0.9306489 0.19966,1.6960423 0.60764,2.2961804 0.41667,0.59144035 1.12848,0.88716054 2.13542,0.88716054 0.63368,0 1.31944,-0.18265071 2.04861,-0.55664974 0.72917,-0.3696503 1.44531,-0.9480442 2.15278,-1.7395306 0.92448,-0.9610906 1.77083,-2.0526461 2.53472,-3.2703174 0.77257,-1.2176714 1.36285,-2.1961574 1.77084,-2.9398067 0.0347,-0.069581 0.0911,-0.1043718 0.17361,-0.1043718 0.11284,0 0.17361,0.1304648 0.17361,0.3826967 0,0.2696272 -0.0781,0.5479521 -0.2257,0.8349747 -0.38194,0.7914864 -0.97222,1.7830188 -1.77083,2.9745972 -0.79861,1.1959273 -1.68403,2.2570409 -2.65625,3.1833409 -0.70747,0.72190523 -1.57118,1.27855501 -2.58681,1.66994938 -1.00694,0.38269673 -1.97482,0.57404509 -2.8993,0.57404509 z m 2.01389,-15.34265997 c 1.15451,-1.008927 2.5,-2.209203 4.02778,-3.600828 1.52777,-1.400322 3.09461,-2.905016 4.70486,-4.505384 1.6059,-1.609066 3.12934,-3.218132 4.56597,-4.8185 1.43229,-1.609065 2.68229,-3.122457 3.75,-4.540174 1.06337,-1.413369 1.77951,-2.648436 2.15278,-3.7052 0.3342,-0.961091 0.50347,-1.70474 0.50347,-2.2266 0,-0.974137 -0.42969,-1.461205 -1.28472,-1.461205 -0.48611,0 -1.06771,0.18265 -1.73611,0.539254 -0.67275,0.347906 -1.28473,0.800184 -1.84028,1.356834 -0.9375,0.904556 -2.03125,2.18746 -3.28125,3.844363 -1.25,1.661251 -2.56945,3.55734 -3.95834,5.688265 -1.3802,2.122227 -2.73437,4.344477 -4.0625,6.662402 -1.31944,2.309226 -2.5,4.566267 -3.54166,6.766773 z m 9.17969,15.116521 c -1.04167,0 -1.80556,-0.33920846 -2.29167,-1.02632303 -0.48611,-0.69581227 -0.72917,-1.54818217 -0.72917,-2.55710997 0,-0.2870225 0.0217,-0.5914403 0.0695,-0.9045558 0.0564,-0.3218132 0.12586,-0.652324 0.20833,-0.9915325 0.40365,-1.4959962 1.04601,-3.1659456 1.92708,-5.0098477 0.87674,-1.8526 1.72743,-3.505154 2.55209,-4.957662 0.48611,-0.821929 0.92882,-1.40902 1.3368,-1.756926 0.41667,-0.356604 0.86806,-0.617534 1.35417,-0.782789 0.48611,-0.173953 1.06337,-0.36965 1.73611,-0.59144 0.18229,-0.07828 0.36892,-0.139163 0.55556,-0.173953 0.18229,-0.03479 0.38628,-0.06958 0.60763,-0.104372 -0.74218,0.743649 -1.49305,1.635158 -2.25694,2.678877 -0.76389,1.043718 -1.59722,2.48318 -2.5,4.314036 -0.48611,0.974137 -0.96354,2.0613433 -1.42361,3.2529217 -0.46441,1.1959273 -0.86372,2.3135757 -1.19792,3.357294 -0.33854,1.0437183 -0.52951,1.8612977 -0.57292,2.4527381 -0.0347,0.7219052 0.0564,1.2307179 0.27778,1.53078689 0.23004,0.29137137 0.52952,0.43488264 0.90278,0.43488264 0.63368,0 1.24132,-0.21744132 1.82292,-0.66102163 0.57725,-0.4522779 1.09375,-0.9219512 1.54514,-1.4090197 0.82031,-0.9393465 1.58854,-1.9656696 2.30902,-3.0789691 0.72917,-1.1219972 1.44966,-2.3179245 2.17014,-3.583433 0.10417,-0.1478601 0.19532,-0.226139 0.27778,-0.226139 0.14757,0 0.2257,0.1130695 0.2257,0.3305109 0,0.1869995 -0.0434,0.3392084 -0.12153,0.4522779 -0.67275,1.2307179 -1.38455,2.4657846 -2.13542,3.7052001 -0.74219,1.2307179 -1.6493,2.3831569 -2.72569,3.4616658 -0.48611,0.4870686 -1.05903,0.91760237 -1.71875,1.28725262 -0.65105,0.36965024 -1.38455,0.55664978 -2.20486,0.55664978 z m 6.85763,-22.022457 c -0.4427,0 -0.79861,-0.143511 -1.07638,-0.434883 -0.2691,-0.300069 -0.39931,-0.647975 -0.39931,-1.043718 0,-0.543603 0.21267,-1.017625 0.64236,-1.426415 0.43837,-0.417487 0.91146,-0.647975 1.42361,-0.695812 0.41667,0 0.76389,0.139162 1.04167,0.417487 0.28646,0.278325 0.43403,0.634929 0.43403,1.061114 0,0.521859 -0.20834,1.008928 -0.625,1.461206 -0.41667,0.44358 -0.89844,0.661021 -1.44098,0.661021 z M 146.6857,0.39922722 c -1.2066,0 -2.03125,-0.38269673 -2.48264,-1.14809017 -0.44271,-0.76539345 -0.65973,-1.61776345 -0.65973,-2.55710995 0,-0.1826507 0.026,-0.5088127 0.0868,-0.9741371 0.0564,-0.4609756 0.12153,-0.9045559 0.19097,-1.3220432 -0.52083,0.7088587 -1.14583,1.4916474 -1.875,2.3483662 -0.72916,0.8610677 -1.46701,1.5916705 -2.20486,2.1918085 -1.2066,0.97413716 -2.28733,1.46120572 -3.24653,1.46120572 -0.9375,0 -1.66232,-0.3957432 -2.17014,-1.18288078 -0.49913,-0.78713754 -0.74652,-1.77867004 -0.74652,-2.97459724 0,-1.5307869 0.3342,-3.0789691 1.00694,-4.6445466 0.6684,-1.5655775 1.55382,-3.0441786 2.65625,-4.4358026 1.09809,-1.400322 2.31771,-2.609296 3.6632,-3.618224 0.78559,-0.565347 1.74479,-1.026323 2.88194,-1.374229 1.14583,-0.356604 2.29601,-0.539255 3.45486,-0.539255 1.30642,0 2.45226,0.200046 3.4375,0.591441 0.99392,0.395743 1.67535,0.948044 2.04861,1.652554 -0.78993,1.008928 -1.59288,2.252692 -2.41319,3.722595 -0.82466,1.474252 -1.52778,2.8093422 -2.11806,4.0009206 -0.41666,0.826277 -0.86805,1.8439024 -1.35416,3.0615738 -0.48612,1.2089737 -0.72917,2.2396456 -0.72917,3.0963644 0,0.373999 0.0911,0.7479981 0.27778,1.1306948 0.19531,0.3739991 0.55555,0.55664981 1.07639,0.55664981 0.59027,0 1.16319,-0.21744132 1.71875,-0.66102161 0.56423,-0.4522779 1.03298,-0.9045559 1.40625,-1.3568338 0.86805,-0.9393465 1.65364,-1.9656696 2.36111,-3.0789691 0.70312,-1.1219972 1.41059,-2.3179245 2.11805,-3.583433 0.11285,-0.1478601 0.23004,-0.226139 0.34722,-0.226139 0.14757,0 0.2257,0.1130695 0.2257,0.3305109 0,0.1869995 -0.0434,0.3392084 -0.12153,0.4522779 -0.63802,1.2307179 -1.34983,2.4657846 -2.13542,3.7052001 -0.77691,1.2307179 -1.71007,2.3831569 -2.79513,3.4616658 -0.52084,0.52185917 -1.13716,0.97413712 -1.84028,1.35683384 -0.70747,0.36965024 -1.39757,0.55664978 -2.06597,0.55664978 z m -8.95834,-1.73953052 c 0.70313,0 1.4757,-0.3826968 2.30903,-1.1480902 0.84201,-0.7653935 1.66667,-1.6960423 2.46528,-2.8006442 0.80729,-1.1002531 1.53646,-2.1613667 2.1875,-3.1833409 0.65972,-1.0306719 1.17187,-1.8265074 1.54514,-2.3831574 0.78559,-1.239415 1.51475,-2.265738 2.1875,-3.078969 0.6684,-0.821928 1.71007,-1.461205 3.125,-1.913483 0.0781,0 0.14323,-0.0043 0.19097,-0.0174 0.0564,-0.02174 0.12587,-0.03479 0.20833,-0.03479 -0.33854,-0.521859 -0.89844,-0.908905 -1.68403,-1.165486 -0.78993,-0.265278 -1.55382,-0.400092 -2.29166,-0.400092 -1.15886,0 -2.28299,0.321814 -3.36806,0.956742 -1.07639,0.626231 -2.06597,1.426415 -2.96875,2.400552 -0.85937,1.008928 -1.69705,2.11353 -2.51736,3.305108 -0.82465,1.1959277 -1.48871,2.4092502 -1.99653,3.6356193 -0.49913,1.2307179 -0.74653,2.4092498 -0.74653,3.531247 0,0.5914404 0.10417,1.1263461 0.3125,1.6003681 0.20834,0.4653245 0.55556,0.6958123 1.04167,0.6958123 z m 0,0"
         style="fill:#ffffff;fill-opacity:1;fill-rule:nonzero;stroke:none"
         aria-label="Senpoî½ia"
         transform="matrix(0.89999996,0,0,0.89823084,-0.95462026,63.004683)" /><path
         id="path3"
         d="M 3.5233645,4.9221087 C 3.0719756,4.7003185 2.7247534,4.3828542 2.4816978,3.9653669 2.2473228,3.5565772 2.1344756,3.1521363 2.1344756,2.7476955 c 0,-0.4174874 0.1085069,-0.7566958 0.3298611,-1.0089278 0.1128472,-0.1522089 0.2517361,-0.2391854 0.4166667,-0.2609295 0.1736111,-0.013047 0.2170139,0.07393 0.1388889,0.2609295 -0.1171875,0.5566498 0.1432292,1.078509 0.78125,1.5655775 0.6336806,0.4870686 1.2152779,0.8045329 1.7361112,0.9567419 0.5642362,0.1043718 1.1284723,0.1565577 1.6840279,0.1565577 1.1545139,0 2.1788195,-0.1696042 3.0729166,-0.5044639 1.354167,-0.4435802 2.690972,-1.3568338 4.010417,-2.7484582 1.319444,-1.37857801 2.556424,-2.9441555 3.715278,-4.6967326 1.119792,-1.7134376 2.230903,-3.6617118 3.333333,-5.8448226 1.098091,-2.1787625 2.213542,-4.4358025 3.350695,-6.7667735 1.145833,-2.339669 2.369792,-4.601059 3.680556,-6.78417 1.306423,-2.178762 2.712673,-4.140082 4.21875,-5.879613 1.514757,-1.73953 3.185764,-3.070271 5.017361,-4.00092 -1.831597,-0.230488 -3.706597,-0.539255 -5.625,-0.921951 -1.922743,-0.391395 -3.537327,-0.70451 -4.84375,-0.939347 -0.824653,-0.139162 -1.753473,-0.234836 -2.795139,-0.29572 -1.041667,-0.05653 -2.144098,-0.08698 -3.298612,-0.08698 -2.061632,0 -4.123264,0.121768 -6.180555,0.365302 -2.048612,0.243534 -3.689237,0.643626 -4.913195,1.200276 -2.1657987,0.974137 -4.0364585,2.313576 -5.6076391,4.018316 -1.5625001,1.696042 -2.3437501,3.809571 -2.3437501,6.349286 0,1.043718 0.1736111,1.930879 0.5208334,2.661482 0.3559028,0.721905 0.8203125,1.265508 1.3888889,1.635159 0.6336806,0.382696 1.2890626,0.574045 1.9618057,0.574045 0.8203125,0 1.6579861,-0.247883 2.5173612,-0.747999 0.8550347,-0.508812 1.601563,-1.252462 2.239583,-2.226599 0.29948,-0.487068 0.590278,-1.191578 0.868056,-2.122227 0.277778,-0.939346 0.416667,-1.887391 0.416667,-2.85283 0,-0.530557 -0.04774,-1.035021 -0.138889,-1.513392 -0.09549,-0.487068 -0.273438,-0.913253 -0.538195,-1.287252 -0.06944,-0.14786 -0.104166,-0.226139 -0.104166,-0.226139 0,-0.11307 0.05208,-0.173953 0.15625,-0.173953 0.147569,0 0.282118,0.09567 0.399305,0.278325 0.182292,0.269627 0.381945,0.674068 0.590278,1.217671 0.208333,0.534906 0.347222,1.026323 0.416667,1.478601 0.03472,0.22179 0.06076,0.447929 0.08681,0.678417 0.0217,0.22179 0.03472,0.44358 0.03472,0.661022 0,0.743649 -0.09983,1.495996 -0.295138,2.261389 -0.186632,0.765394 -0.481771,1.469904 -0.885417,2.104832 -0.603299,1.008928 -1.40625,1.769973 -2.4131947,2.278785 -1.0069444,0.500115 -2.0486112,0.747998 -3.1250001,0.747998 -0.8680556,0 -1.6927084,-0.165255 -2.4652779,-0.504463 -1.1588542,-0.55665 -2.0095487,-1.356834 -2.5520834,-2.400553 -0.54687503,-1.052416 -0.81597227,-2.196157 -0.81597227,-3.426875 0,-0.821928 0.10416667,-1.652554 0.31250001,-2.487529 0.20833335,-0.843672 0.49479166,-1.656902 0.86805556,-2.435342 0.6336806,-1.378578 1.5104168,-2.591901 2.6215279,-3.635619 1.1197917,-1.052416 2.2439237,-1.878693 3.3680557,-2.470134 1.8619793,-1.008927 3.7369792,-1.713437 5.6250002,-2.122227 1.883681,-0.417487 3.802084,-0.626231 5.746528,-0.626231 1.597222,0 3.216146,0.117418 4.861111,0.347906 1.640625,0.22179 3.302952,0.534906 4.982639,0.939347 1.909723,0.452278 3.871528,0.956742 5.885417,1.513391 1.006945,0.269628 2.209202,0.55665 3.611112,0.869766 1.397569,0.313115 2.730034,0.469673 3.993055,0.469673 0.750868,0 1.493056,-0.09567 2.222223,-0.29572 0.729166,-0.208744 1.293403,-0.63058 1.701389,-1.269858 0.147569,-0.217441 0.225694,-0.495766 0.225694,-0.834974 0,-0.182651 -0.01302,-0.356604 -0.03472,-0.521859 -0.01302,-0.173954 0,-0.278325 0.03472,-0.313116 0.07813,-0.07828 0.15625,-0.121767 0.225695,-0.121767 0.147569,0 0.282118,0.117418 0.399305,0.347906 0.104167,0.139162 0.15625,0.417487 0.15625,0.834975 0,0.25658 -0.01736,0.44358 -0.05208,0.556649 -0.221354,0.791487 -0.720486,1.387276 -1.493056,1.791717 -0.763889,0.40879 -1.519097,0.669719 -2.256944,0.782789 -0.30382,0.03479 -0.633681,0.06523 -0.989584,0.08698 -0.347222,0.02609 -0.707465,0.03479 -1.076389,0.03479 -0.303819,0 -0.620659,0 -0.954861,0 -0.338541,0 -0.672743,-0.02174 -1.006944,-0.06958 -1.24132,0.569696 -2.530382,1.635158 -3.871528,3.200736 -1.644966,1.939576 -3.064236,4.00092 -4.253473,6.192729 -1.193576,2.18311 -2.291666,4.418407 -3.298611,6.714588 -1.006944,2.29618 -2.044271,4.566267 -3.107639,6.8015641 -1.067708,2.2396455 -2.326389,4.383617 -3.784722,6.436263 -1.310764,1.8352048 -2.786459,3.47036349 -4.427084,4.9228715 -1.644965,1.4612057 -3.506944,2.5614588 -5.590278,3.3051081 -1.158854,0.4174873 -2.5434027,0.626231 -4.1493055,0.626231 -0.6380209,0 -1.232639,-0.047837 -1.7881946,-0.1391625 C 4.4261424,5.313503 3.9400312,5.1525965 3.5233645,4.9221087 Z M 33.814164,-0.33127362 c -0.221354,0.25658076 -0.447048,0.38269672 -0.677083,0.38269672 -0.15191,0 -0.243056,-0.06088357 -0.277778,-0.19134836 -0.03472,-0.12611597 0.0043,-0.26527841 0.121528,-0.41748733 0.633681,-0.70450991 1.39757,-1.67429821 2.291667,-2.90501601 0.889757,-1.2394156 1.779514,-2.6005982 2.673611,-4.0878968 0.902778,-1.4959963 1.688368,-3.0354806 2.361111,-4.6271516 0.668403,-1.587321 1.080729,-3.105062 1.232639,-4.55757 -0.859375,-0.487068 -1.436632,-1.326392 -1.736111,-2.522319 -0.03472,-0.182651 -0.0651,-0.356604 -0.08681,-0.521859 -0.01302,-0.173953 -0.01736,-0.33486 -0.01736,-0.487069 0,-0.669719 0.138889,-1.239415 0.416667,-1.70474 0.277778,-0.474022 0.598958,-0.713207 0.972222,-0.713207 0.520834,0 0.946181,0.504464 1.284723,1.513391 0.07813,0.269628 0.138888,0.55665 0.173611,0.869766 0.03472,0.313115 0.05208,0.621882 0.05208,0.921951 0,0.339208 -0.01302,0.643626 -0.03472,0.921951 -0.01302,0.278325 -0.03472,0.51751 -0.06945,0.713207 0.264757,0.06958 0.61198,0.121768 1.041667,0.156558 0.425347,0.03479 0.902778,0.05219 1.423611,0.05219 0.785591,0 1.605903,-0.02174 2.465278,-0.06958 0.855035,-0.05654 1.584202,-0.08698 2.1875,-0.08698 0.703125,0 1.184896,0.152209 1.440972,0.452278 0.264757,0.291372 0.399306,0.661022 0.399306,1.1133 0,0.55665 -0.138889,1.165485 -0.416667,1.826507 -0.277777,0.652324 -0.551215,1.200276 -0.815972,1.652554 -0.486111,0.895858 -0.94618,1.687345 -1.371528,2.383157 -0.429687,0.6871145 -0.902778,1.4177173 -1.423611,2.1918084 -0.78993,1.1959272 -1.362847,2.2918315 -1.71875,3.2877127 -0.347222,0.9871836 -0.520833,1.8178095 -0.520833,2.4875287 0,1.1611367 0.425347,1.73953061 1.284722,1.73953061 0.703125,0 1.618924,-0.50446391 2.743056,-1.51339161 0.703125,-0.6349286 1.362847,-1.3916244 1.979166,-2.2613897 0.625,-0.8784629 1.184896,-1.77867 1.684028,-2.6962724 0.507813,-0.9132535 0.92882,-1.6699493 1.267361,-2.2613897 0.06945,-0.1130695 0.14323,-0.1739531 0.225695,-0.1739531 0.147569,0 0.225694,0.152209 0.225694,0.452278 0,0.2217901 -0.06076,0.426185 -0.173611,0.6088357 -0.638021,1.1611366 -1.367187,2.4309939 -2.1875,3.8095719 -0.824653,1.3829268 -1.831597,2.5745052 -3.020833,3.583433 -0.638021,0.52185913 -1.263021,0.90455585 -1.875,1.14809013 -0.61632,0.24353428 -1.180556,0.36530142 -1.701389,0.36530142 -0.9375,0 -1.71875,-0.32616198 -2.343751,-0.97413712 -0.616319,-0.66102163 -0.920138,-1.53078693 -0.920138,-2.60929583 0,-0.6349287 0.147569,-1.4003221 0.451388,-2.2961803 0.486112,-1.3437874 1.215278,-2.63104 2.187501,-3.8617579 0.972222,-1.2263689 1.901041,-2.4788309 2.795139,-3.7573859 0.564236,-0.739301 0.850694,-1.465555 0.850694,-2.174413 0,-0.382697 -0.104167,-0.700161 -0.3125,-0.956742 -0.208333,-0.265279 -0.572917,-0.417487 -1.09375,-0.452278 -0.303819,-0.06958 -0.638021,-0.104372 -1.006945,-0.104372 -0.373263,0 -0.742187,0 -1.111111,0 h -1.579861 c -0.221354,0 -0.425347,0 -0.607639,0 -0.186632,0 -0.355903,-0.0174 -0.503472,-0.05219 -0.186632,1.417718 -0.625,2.935458 -1.319444,4.55757 -0.694445,1.626461 -1.501737,3.2181318 -2.413195,4.7837093 -0.915799,1.5655775 -1.814236,2.9702484 -2.690972,4.209664 -0.868056,1.2307178 -1.605903,2.1831108 -2.204862,2.85283008 z m 31.918405,0.73060283 c -1.206598,0 -2.031251,-0.38269672 -2.482639,-1.14809017 -0.442709,-0.76539344 -0.659723,-1.61776344 -0.659723,-2.55710994 0,-0.1826507 0.02604,-0.5088127 0.08681,-0.9741371 0.05642,-0.4609756 0.121528,-0.9045559 0.190972,-1.3220432 -0.520833,0.7088587 -1.145833,1.4916474 -1.875,2.3483662 -0.729167,0.8610677 -1.467014,1.5916705 -2.204861,2.1918085 -1.206597,0.97413716 -2.287327,1.46120571 -3.246528,1.46120571 -0.9375,0 -1.662327,-0.3957432 -2.170139,-1.18288078 -0.499132,-0.78713753 -0.746528,-1.77867003 -0.746528,-2.97459723 0,-1.5307869 0.334201,-3.0789691 1.006945,-4.6445466 0.668402,-1.5655775 1.553819,-3.0441786 2.65625,-4.4358026 1.09809,-1.400322 2.317708,-2.609296 3.663194,-3.618224 0.785591,-0.565347 1.744792,-1.026323 2.881945,-1.374229 1.145833,-0.356604 2.296007,-0.539255 3.454861,-0.539255 1.306424,0 2.452257,0.200046 3.4375,0.591441 0.993924,0.395743 1.675348,0.948044 2.048611,1.652554 -0.78993,1.008928 -1.592882,2.252692 -2.413194,3.722595 -0.824653,1.474252 -1.527778,2.8093422 -2.118056,4.0009206 -0.416666,0.826277 -0.868055,1.8439024 -1.354166,3.0615738 -0.486112,1.2089737 -0.729167,2.2396456 -0.729167,3.0963644 0,0.373999 0.09115,0.7479981 0.277778,1.1306948 0.195312,0.3739991 0.555555,0.55664981 1.076389,0.55664981 0.590277,0 1.163194,-0.21744132 1.71875,-0.66102161 0.564236,-0.452278 1.032986,-0.9045559 1.40625,-1.3568338 0.868055,-0.9393465 1.653646,-1.9656696 2.361111,-3.0789691 0.703125,-1.1219972 1.41059,-2.3179245 2.118056,-3.583433 0.112847,-0.1478601 0.230034,-0.226139 0.347222,-0.226139 0.147569,0 0.225694,0.1130695 0.225694,0.3305108 0,0.1869996 -0.0434,0.3392085 -0.121528,0.452278 -0.63802,1.2307179 -1.349826,2.4657846 -2.135416,3.7052001 -0.77691,1.2307179 -1.71007,2.3831569 -2.795139,3.4616658 -0.520834,0.52185917 -1.137153,0.97413711 -1.840278,1.35683383 -0.707465,0.36965025 -1.39757,0.55664978 -2.065972,0.55664978 z M 56.774235,-1.3402013 c 0.703125,0 1.475694,-0.3826968 2.309028,-1.1480902 0.842014,-0.7653935 1.666666,-1.6960423 2.465278,-2.8006442 0.807291,-1.1002531 1.536458,-2.1613667 2.1875,-3.1833409 0.659722,-1.0306719 1.171875,-1.8265074 1.545139,-2.3831574 0.78559,-1.239415 1.514757,-2.265738 2.1875,-3.078969 0.668403,-0.821928 1.710069,-1.461205 3.125,-1.913483 0.07813,0 0.143229,-0.0043 0.190972,-0.0174 0.05642,-0.02174 0.125868,-0.03479 0.208333,-0.03479 -0.338541,-0.521859 -0.898437,-0.908905 -1.684027,-1.165486 -0.789931,-0.265278 -1.55382,-0.400092 -2.291667,-0.400092 -1.158854,0 -2.282986,0.321814 -3.368056,0.956742 -1.076389,0.626231 -2.065972,1.426415 -2.96875,2.400552 -0.859375,1.008928 -1.697049,2.11353 -2.517361,3.305108 -0.824653,1.1959277 -1.488716,2.4092502 -1.996528,3.6356193 -0.499132,1.2307179 -0.746528,2.4092498 -0.746528,3.531247 0,0.5914404 0.104167,1.1263461 0.3125,1.6003681 0.208333,0.4653245 0.555556,0.6958123 1.041667,0.6958123 z m 27.313369,1.66994929 c -1.076389,0 -1.927083,-0.33485963 -2.552083,-1.00892772 -0.61632,-0.66971927 -0.920139,-1.50469397 -0.920139,-2.50492397 0,-0.4870686 0.09114,-1.0480672 0.277777,-1.6873447 0.520834,-1.6438564 1.345487,-3.2790151 2.482639,-4.9054762 1.145834,-1.6221124 2.092014,-3.2355264 2.847223,-4.8358954 0.251736,-0.521859 0.381944,-0.991532 0.381944,-1.409019 0,-0.404441 -0.121528,-0.70451 -0.364583,-0.904556 -0.243056,-0.208744 -0.533854,-0.313116 -0.868056,-0.313116 -0.486111,0 -1.09375,0.200046 -1.822916,0.591441 -0.720487,0.382696 -1.545139,1.113299 -2.482639,2.191808 -0.555556,0.674068 -1.193577,1.495997 -1.909723,2.470134 -0.707465,0.974137 -1.284722,1.8526 -1.736111,2.6266908 -0.742187,1.2785549 -1.414931,2.5571099 -2.013889,3.8443625 -0.590278,1.2872526 -1.111111,2.4701334 -1.5625,3.5486424 -0.373264,0.8610676 -0.824653,1.40901971 -1.354167,1.65255398 -0.520833,0.24353428 -1.024305,0.34790612 -1.510416,0.3131155049 -0.486112,-0.0347906149 -0.859375,-0.0347906149 -1.111112,0 C 70.91052,-2.0534089 71.934826,-4.2147756 72.94177,-6.4892118 c 1.006945,-2.2831339 1.86632,-4.5619192 2.586806,-6.8363552 0.334201,-1.043718 0.611979,-2.056995 0.833333,-3.044178 0.217014,-0.995882 0.3125,-1.643857 0.277778,-1.948275 v -0.104371 c 0,-0.300069 0.147569,-0.374 0.451389,-0.226139 0.486111,0.269627 0.820312,0.656672 1.006944,1.165485 0.182292,0.500115 0.277778,1.061114 0.277778,1.687345 0,0.708858 -0.09549,1.469903 -0.277778,2.278785 -0.186632,0.800184 -0.412326,1.522089 -0.677083,2.157018 0.486111,-0.66972 1.006945,-1.356834 1.5625,-2.052646 0.564236,-0.695813 1.184896,-1.356834 1.857639,-1.983065 0.78559,-0.787138 1.623264,-1.469904 2.517361,-2.052646 0.902778,-0.578394 1.875,-0.869766 2.916667,-0.869766 1.006945,0 1.740452,0.226139 2.204861,0.678417 0.473091,0.452278 0.711806,1.052416 0.711806,1.791717 0,0.791486 -0.225695,1.687344 -0.677083,2.696272 -0.486112,1.14809 -1.076389,2.304878 -1.770834,3.461666 -0.685764,1.1611366 -1.310764,2.278785 -1.875,3.3572939 -0.104167,0.2348367 -0.277778,0.5827428 -0.520833,1.0437184 -0.243056,0.4653244 -0.46441,0.9741371 -0.659723,1.5307869 -0.06944,0.2696272 -0.147569,0.5392545 -0.225694,0.8175793 -0.06944,0.2783249 -0.104167,0.5696963 -0.104167,0.8697653 0,0.3739991 0.07813,0.7219052 0.243056,1.0437184 0.173611,0.31311546 0.503472,0.46967321 0.989583,0.46967321 0.633681,0 1.24132,-0.2130925 1.822917,-0.64362631 0.577257,-0.426185 1.067708,-0.8871606 1.475695,-1.3742291 0.868055,-0.9393465 1.657986,-1.9743672 2.378472,-3.1137597 0.729167,-1.1350437 1.449653,-2.3353198 2.170139,-3.6008283 0.104166,-0.1478601 0.173611,-0.226139 0.208333,-0.226139 0.14757,0 0.225695,0.1696043 0.225695,0.5044639 0,0.2217901 -0.03472,0.3913944 -0.104167,0.5044638 -0.672743,1.2307179 -1.384549,2.4353428 -2.135417,3.6182236 -0.742187,1.1741831 -1.657986,2.2961804 -2.743055,3.3746893 -0.486112,0.4870686 -1.050348,0.91760237 -1.684028,1.28725261 -0.625,0.36965025 -1.332466,0.55664978 -2.118056,0.55664978 z m 9.466146,0.12176714 c -0.78993,0 -1.510416,-0.15655775 -2.170139,-0.46967325 -0.651041,-0.32181315 -1.176215,-0.87846293 -1.579861,-1.66994938 -0.303819,-0.6697192 -0.451389,-1.3959732 -0.451389,-2.1744132 0,-0.8219281 0.14757,-1.5873216 0.451389,-2.2961803 0.286458,-0.6349286 0.61632,-1.2002761 0.989583,-1.6873446 0.381945,-0.4870686 0.798612,-0.7653935 1.250001,-0.8349747 0.334201,-0.7393005 0.842013,-1.7264837 1.527777,-2.9572017 0.694445,-1.239416 1.480035,-2.474482 2.361112,-3.7052 0.876736,-1.226369 1.705729,-2.217902 2.482639,-2.974598 0.182291,-0.18265 0.507812,-0.491417 0.972222,-0.921951 0.47309,-0.426185 1.015626,-0.843672 1.631946,-1.252462 0.61198,-0.417487 1.18489,-0.661021 1.71875,-0.730603 0.10417,-0.03479 0.24739,-0.05219 0.43403,-0.05219 0.45139,0 0.78559,0.11307 1.00694,0.330511 0.23004,0.22179 0.34722,0.48272 0.34722,0.782789 0,0.304418 -0.11718,0.604487 -0.34722,0.904556 -0.22135,0.291371 -0.57292,0.534906 -1.05903,0.730603 -0.18663,0.03479 -0.46007,0.09567 -0.81597,0.173953 -0.34722,0.06958 -0.85937,0.104372 -1.52778,0.104372 -0.26909,0.373999 -0.3993,0.895858 -0.3993,1.565577 0,0.743649 0.12152,1.582973 0.36458,2.522319 0.24306,0.930649 0.48611,1.835205 0.72917,2.713668 0.24305,0.869765 0.36458,1.6090659 0.36458,2.2092039 0.0695,1.3829268 -0.15191,2.7745513 -0.65972,4.1748734 -0.49913,1.3916244 -1.284724,2.5745052 -2.361113,3.5486423 l -0.78125,0.55664978 c 0.104167,0.0347906 0.212674,0.0652324 0.329861,0.0869765 0.112847,0.026093 0.225695,0.0347906 0.329861,0.0347906 0.633681,0 1.345491,-0.19569718 2.135421,-0.59144038 0.78559,-0.3913943 1.47569,-0.8871606 2.06597,-1.4786009 0.90278,-0.8567188 1.67535,-1.7743212 2.32639,-2.7484583 0.65972,-0.9741371 1.26736,-1.9830649 1.82291,-3.0267832 0.0347,-0.1478601 0.12587,-0.226139 0.27778,-0.226139 0.18229,0 0.27778,0.1522089 0.27778,0.452278 0,0.1522089 -0.0521,0.3218131 -0.15625,0.5044638 -0.56858,1.0437184 -1.25868,2.1352738 -2.06597,3.2703175 -0.79861,1.1393925 -1.62761,2.1004831 -2.48264,2.8876207 -0.67274,0.5914404 -1.38889,1.03502065 -2.15278,1.32204319 -0.763888,0.27832489 -1.40625,0.41748734 -1.927083,0.41748734 -0.373264,0 -0.672743,-0.03479061 -0.902778,-0.10437184 -0.221354,-0.0782789 -0.425347,-0.19569718 -0.607639,-0.34790611 -0.520833,0.26962724 -1.111111,0.49576621 -1.770833,0.67841692 -0.651042,0.18265071 -1.310764,0.27832489 -1.979167,0.27832489 z m 2.118056,-1.46120563 c 0.750868,-0.5218592 1.341146,-1.1915785 1.770833,-2.0178555 0.425348,-0.8219282 0.750868,-1.6960423 0.972223,-2.6266911 0.299479,-1.1219972 0.47743,-2.2831339 0.538194,-3.4790612 0.05642,-1.1915787 0.08681,-2.2700877 0.08681,-3.2355267 v -1.96567 c 0,-0.787137 0.09549,-1.587321 0.295138,-2.400552 0.208334,-0.821928 0.425348,-1.326392 0.659723,-1.513391 -0.568577,0.22179 -1.189236,0.713207 -1.857639,1.478601 -0.672743,0.765393 -1.345486,1.6656 -2.013889,2.696272 -0.672743,1.021974 -1.280382,2.017855 -1.822917,2.991993 -0.533854,0.965439 -0.950521,1.765623 -1.25,2.4005517 0.703125,-0.034791 1.184896,0.1652554 1.440972,0.5914404 0.264757,0.4305338 0.338542,0.7393005 0.225695,0.9219512 -0.290799,-0.069581 -0.494792,-0.1043719 -0.607639,-0.1043719 -0.555556,0 -1.076389,0.2043949 -1.5625,0.6088357 -0.486111,0.3739991 -0.898438,0.9219512 -1.232639,1.6525541 -0.338542,0.7306028 -0.503472,1.4351127 -0.503472,2.104832 0,0.8958582 0.260416,1.5481821 0.78125,1.96566948 0.520833,0.40878968 1.132812,0.6088357 1.840277,0.6088357 0.820313,0 1.566841,-0.22613897 2.239584,-0.67841688 z M 109.8949,0.32974799 c -1.34549,0 -2.27431,-0.38704555 -2.79514,-1.16548547 -0.52084,-0.78713762 -0.78125,-1.77867002 -0.78125,-2.97459722 0,-1.2263691 0.19097,-2.5658076 0.57291,-4.0183156 0.39063,-1.4612057 0.85938,-2.8789227 1.40625,-4.2618497 0.54254,-1.378578 1.06337,-2.591901 1.5625,-3.635619 0.50782,-1.052416 0.85504,-1.783019 1.04167,-2.191809 0.6684,-1.413368 1.4974,-3.013736 2.48264,-4.801104 0.99392,-1.796065 2.11806,-3.626921 3.36806,-5.496916 1.25,-1.865647 2.57378,-3.639968 3.97569,-5.322964 1.39757,-1.678647 2.85156,-3.135504 4.35764,-4.366222 1.51476,-1.226369 3.02083,-2.070041 4.51389,-2.522319 0.41667,-0.11307 0.78993,-0.173953 1.12847,-0.173953 0.63368,0 1.16754,0.182651 1.59722,0.539254 0.42535,0.347907 0.64236,0.952393 0.64236,1.809112 0,0.604487 -0.15191,1.352485 -0.45138,2.243995 -0.48612,1.313345 -1.31077,2.761504 -2.46528,4.348826 -1.15886,1.578624 -2.52604,3.218132 -4.09722,4.922871 -1.5625,1.696043 -3.21181,3.365992 -4.94792,5.009848 -1.73611,1.648206 -3.42882,3.178993 -5.06945,4.592361 -1.63194,1.417718 -3.08593,2.626691 -4.35764,3.635619 -0.33854,0.708859 -0.65104,1.400322 -0.9375,2.070041 -0.27777,0.674069 -0.52951,1.330741 -0.74652,1.9656699 -0.11719,0.3392085 -0.28646,0.8436724 -0.50348,1.5133916 -0.22135,0.6740681 -0.42534,1.4220663 -0.60763,2.2439945 -0.18664,0.8132305 -0.27778,1.5960192 -0.27778,2.3483662 0,0.7436493 0.14323,1.3872756 0.43403,1.9308789 0.29947,0.54795215 0.84201,0.81757939 1.63194,0.81757939 0.63368,0 1.21962,-0.20004602 1.75347,-0.60883569 0.54254,-0.4174873 1.04167,-0.8697653 1.49306,-1.3568338 1.5625,-1.7960653 2.96007,-3.8661067 4.20139,-6.2101241 0.14757,-0.2652785 0.26041,-0.4000921 0.32986,-0.4000921 0.0781,0 0.12153,0.1130695 0.12153,0.3305108 0,0.3392085 -0.0781,0.6958123 -0.2257,1.078509 -0.72048,1.3002991 -1.36719,2.4005522 -1.94444,3.305108 -0.5816,0.8958583 -1.40625,1.8786931 -2.48264,2.957202 -0.48611,0.4870686 -1.05903,0.91760237 -1.71875,1.28725261 -0.65104,0.36965025 -1.38455,0.55664978 -2.20486,0.55664978 z m 2.29166,-15.11652099 c 1.15452,-1.008927 2.5,-2.209203 4.02778,-3.600828 1.53646,-1.400322 3.10764,-2.905016 4.70486,-4.505384 1.60591,-1.609066 3.12934,-3.218132 4.56598,-4.8185 1.43229,-1.609065 2.68229,-3.122457 3.75,-4.540174 1.06336,-1.413369 1.78819,-2.648436 2.17013,-3.7052 0.33421,-0.961091 0.50348,-1.70474 0.50348,-2.2266 0,-0.974137 -0.43403,-1.461205 -1.30209,-1.461205 -0.48611,0 -1.06771,0.18265 -1.73611,0.539254 -0.67274,0.347906 -1.28472,0.800184 -1.84028,1.356834 -0.9375,0.904556 -2.03125,2.18746 -3.28125,3.844363 -1.25,1.661251 -2.5651,3.55734 -3.94097,5.688265 -1.38021,2.122227 -2.73437,4.344477 -4.0625,6.662402 -1.31944,2.309226 -2.50868,4.566267 -3.55903,6.766773 z m 17.704,15.18610221 c -1.2066,0 -2.03125,-0.38269672 -2.48264,-1.14809017 -0.44271,-0.76539344 -0.65972,-1.61776344 -0.65972,-2.55710994 0,-0.1826507 0.026,-0.5088127 0.0868,-0.9741371 0.0564,-0.4609756 0.12153,-0.9045559 0.19097,-1.3220432 -0.52083,0.7088587 -1.14583,1.4916474 -1.875,2.3483662 -0.72916,0.8610677 -1.46701,1.5916705 -2.20486,2.1918085 -1.20659,0.97413716 -2.28732,1.46120571 -3.24653,1.46120571 -0.9375,0 -1.66232,-0.3957432 -2.17013,-1.18288078 -0.49914,-0.78713753 -0.74653,-1.77867003 -0.74653,-2.97459723 0,-1.5307869 0.3342,-3.0789691 1.00694,-4.6445466 0.66841,-1.5655775 1.55382,-3.0441786 2.65625,-4.4358026 1.09809,-1.400322 2.31771,-2.609296 3.6632,-3.618224 0.78559,-0.565347 1.74479,-1.026323 2.88194,-1.374229 1.14584,-0.356604 2.29601,-0.539255 3.45486,-0.539255 1.30643,0 2.45226,0.200046 3.4375,0.591441 0.99393,0.395743 1.67535,0.948044 2.04861,1.652554 -0.78993,1.008928 -1.59288,2.252692 -2.41319,3.722595 -0.82465,1.474252 -1.52778,2.8093422 -2.11806,4.0009206 -0.41666,0.826277 -0.86805,1.8439024 -1.35416,3.0615738 -0.48611,1.2089737 -0.72917,2.2396456 -0.72917,3.0963644 0,0.373999 0.0911,0.7479981 0.27778,1.1306948 0.19531,0.3739991 0.55555,0.55664981 1.07639,0.55664981 0.59028,0 1.16319,-0.21744132 1.71875,-0.66102161 0.56423,-0.452278 1.03298,-0.9045559 1.40625,-1.3568338 0.86805,-0.9393465 1.65364,-1.9656696 2.36111,-3.0789691 0.70312,-1.1219972 1.41059,-2.3179245 2.11805,-3.583433 0.11285,-0.1478601 0.23004,-0.226139 0.34723,-0.226139 0.14757,0 0.22569,0.1130695 0.22569,0.3305108 0,0.1869996 -0.0434,0.3392085 -0.12153,0.452278 -0.63802,1.2307179 -1.34982,2.4657846 -2.13541,3.7052001 -0.77691,1.2307179 -1.71007,2.3831569 -2.79514,3.4616658 -0.52084,0.52185917 -1.13716,0.97413711 -1.84028,1.35683383 -0.70747,0.36965025 -1.39757,0.55664978 -2.06597,0.55664978 z m -8.95834,-1.73953051 c 0.70313,0 1.4757,-0.3826968 2.30903,-1.1480902 0.84202,-0.7653935 1.66667,-1.6960423 2.46528,-2.8006442 0.80729,-1.1002531 1.53646,-2.1613667 2.1875,-3.1833409 0.65972,-1.0306719 1.17187,-1.8265074 1.54514,-2.3831574 0.78559,-1.239415 1.51476,-2.265738 2.1875,-3.078969 0.6684,-0.821928 1.71007,-1.461205 3.125,-1.913483 0.0781,0 0.14323,-0.0043 0.19097,-0.0174 0.0564,-0.02174 0.12587,-0.03479 0.20833,-0.03479 -0.33854,-0.521859 -0.89843,-0.908905 -1.68402,-1.165486 -0.78993,-0.265278 -1.55382,-0.400092 -2.29167,-0.400092 -1.15885,0 -2.28299,0.321814 -3.36806,0.956742 -1.07639,0.626231 -2.06597,1.426415 -2.96875,2.400552 -0.85937,1.008928 -1.69704,2.11353 -2.51736,3.305108 -0.82465,1.1959277 -1.48871,2.4092502 -1.99653,3.6356193 -0.49913,1.2307179 -0.74652,2.4092498 -0.74652,3.531247 0,0.5914404 0.10416,1.1263461 0.3125,1.6003681 0.20833,0.4653245 0.55555,0.6958123 1.04166,0.6958123 z m 19.25782,1.73953051 c -0.9375,0 -1.77084,-0.27397606 -2.5,-0.81757936 -0.72917,-0.5436033 -1.09375,-1.43076385 -1.09375,-2.66148175 0,-1.3089968 0.31684,-2.7484583 0.95486,-4.3140358 0.63368,-1.5655775 1.23264,-2.9615503 1.78819,-4.1922683 0.29948,-0.600138 0.69879,-1.413369 1.19792,-2.435343 0.50781,-1.030672 1.06337,-2.052646 1.66667,-3.061574 h -2.63889 c -0.10417,0 -0.15625,-0.09133 -0.15625,-0.278325 0,-0.14786 0.0521,-0.304418 0.15625,-0.469673 0.11284,-0.173953 0.24739,-0.26093 0.3993,-0.26093 1.04167,0 1.82292,-0.09132 2.34375,-0.278325 0.52084,-0.18265 0.97222,-0.44358 1.35417,-0.782788 0.59028,-0.521859 1.17187,-1.191579 1.75347,-2.017856 0.57726,-0.821928 1.15018,-1.530787 1.71875,-2.122227 0.40365,-0.521859 0.91146,-0.908905 1.52778,-1.165485 0.61198,-0.265279 1.01562,-0.365302 1.21528,-0.295721 -0.19966,0.269628 -0.49913,0.721906 -0.90278,1.356834 -0.40799,0.626231 -0.83333,1.317695 -1.28472,2.070042 -0.45139,0.743649 -0.86372,1.435112 -1.23264,2.070041 -0.37327,0.626231 -0.61632,1.056765 -0.72917,1.287253 h 3.69792 c 0.10417,0 0.15625,0.03479 0.15625,0.104371 0,0.152209 -0.0868,0.321813 -0.26042,0.504464 -0.16493,0.187 -0.3125,0.278325 -0.45139,0.278325 h -3.64583 c -0.67274,1.161137 -1.46701,2.67018 -2.37847,4.52278 -0.9158,1.843902 -1.72743,3.6269208 -2.43056,5.3403584 -0.15191,0.3392084 -0.40798,1.0089277 -0.76389,2.0178554 -0.36024,1.0089277 -0.53819,1.9439254 -0.53819,2.8006442 0,0.5566498 0.12153,1.0219742 0.36458,1.3916245 0.24306,0.37399903 0.66406,0.55664974 1.26736,0.55664974 0.63368,0 1.32379,-0.2304878 2.06597,-0.69581224 0.75087,-0.4609756 1.32813,-0.9393465 1.73612,-1.426415 0.85503,-0.9393465 1.63628,-1.9656696 2.34375,-3.0789691 0.71614,-1.1219972 1.42795,-2.3179245 2.13541,-3.583433 0.11285,-0.1478601 0.23004,-0.226139 0.34723,-0.226139 0.13888,0 0.20833,0.1130695 0.20833,0.3305108 0,0.1869996 -0.0347,0.3392085 -0.10417,0.452278 -0.67274,1.2307179 -1.38889,2.4657846 -2.15278,3.7052001 -0.76389,1.2307179 -1.6927,2.3831569 -2.77777,3.4616658 -0.48612,0.4870686 -1.1415,0.93064885 -1.96181,1.32204322 -0.82465,0.39139438 -1.62326,0.59144039 -2.39583,0.59144039 z m 10.07378,-0.0695812 c -1.04166,0 -1.80555,-0.33920846 -2.29166,-1.02632303 -0.48612,-0.69581228 -0.72917,-1.54818218 -0.72917,-2.55710998 0,-0.2870225 0.0217,-0.5914404 0.0694,-0.9045559 0.0564,-0.3218131 0.12587,-0.6523239 0.20834,-0.9915324 0.40364,-1.4959963 1.046,-3.1659456 1.92708,-5.0098477 0.87674,-1.8526 1.72743,-3.505154 2.55208,-4.957662 0.48611,-0.821929 0.92882,-1.40902 1.33681,-1.756926 0.41667,-0.356604 0.86805,-0.617534 1.35417,-0.782789 0.48611,-0.173953 1.06336,-0.36965 1.73611,-0.59144 0.18229,-0.07828 0.36892,-0.139163 0.55555,-0.173953 0.18229,-0.03479 0.38629,-0.06958 0.60764,-0.104372 -0.74219,0.743649 -1.49305,1.635158 -2.25694,2.678877 -0.76389,1.043718 -1.59723,2.48318 -2.5,4.314036 -0.48611,0.974137 -0.96355,2.0613433 -1.42361,3.2529217 -0.46441,1.1959273 -0.86372,2.3135757 -1.19792,3.357294 -0.33854,1.0437183 -0.52952,1.8612977 -0.57292,2.4527381 -0.0347,0.7219052 0.0564,1.2307179 0.27778,1.5307869 0.23003,0.29137137 0.52951,0.43488264 0.90278,0.43488264 0.63368,0 1.24132,-0.21744132 1.82291,-0.66102164 0.57726,-0.4522779 1.09375,-0.9219512 1.54514,-1.4090197 0.82032,-0.9393465 1.58855,-1.9656696 2.30903,-3.0789691 0.72917,-1.1219972 1.44965,-2.3179245 2.17014,-3.583433 0.10417,-0.1478601 0.19531,-0.226139 0.27778,-0.226139 0.14757,0 0.22569,0.1130695 0.22569,0.3305108 0,0.1869996 -0.0434,0.3392085 -0.12153,0.452278 -0.67274,1.2307179 -1.38454,2.4657846 -2.13541,3.7052001 -0.74219,1.2307179 -1.64931,2.3831569 -2.7257,3.4616658 -0.48611,0.4870686 -1.05902,0.91760239 -1.71875,1.28725263 -0.65104,0.36965025 -1.38455,0.55664978 -2.20486,0.55664978 z m 6.85764,-22.02245701 c -0.44271,0 -0.79861,-0.143511 -1.07639,-0.434883 -0.26909,-0.300069 -0.3993,-0.647975 -0.3993,-1.043718 0,-0.543603 0.21267,-1.017625 0.64236,-1.426415 0.43837,-0.417487 0.91146,-0.647975 1.42361,-0.695812 0.41667,0 0.76389,0.139162 1.04167,0.417487 0.28645,0.278325 0.43402,0.634929 0.43402,1.061114 0,0.521859 -0.20833,1.008928 -0.625,1.461205 -0.41666,0.443581 -0.89843,0.661022 -1.44097,0.661022 z m 5.73785,22.8052457 c -1.42361,0 -2.65191,-0.45227788 -3.68056,-1.35683377 -1.01996,-0.91325353 -1.52777,-2.33097093 -1.52777,-4.24445463 0,-1.1915784 0.21267,-2.4353427 0.64236,-3.7225954 0.42534,-1.2872526 0.90277,-2.4353429 1.42361,-3.4442709 0.97222,-1.817809 2.19184,-3.409479 3.66319,-4.766313 1.48004,-1.365532 3.24653,-2.052646 5.29514,-2.052646 1.97917,0 3.35938,0.539254 4.14931,1.617763 0.78559,1.078509 1.18055,2.40925 1.18055,3.983525 0,0.626231 -0.0608,1.278555 -0.17361,1.948274 -0.30382,1.835205 -0.9158,3.6095262 -1.84028,5.3229638 0.25174,0.3739991 0.59462,0.6784169 1.02431,0.9219512 0.42535,0.2435343 0.90278,0.3653014 1.42361,0.3653014 0.90278,0 1.67101,-0.2435343 2.30903,-0.7306028 0.63368,-0.4870686 1.18489,-1.0872066 1.6493,-1.8091118 0.46007,-0.7306029 0.85938,-1.4133686 1.19792,-2.0526461 0.23004,-0.4044408 0.43837,-0.6088357 0.625,-0.6088357 0.10417,0 0.15625,0.078279 0.15625,0.226139 0,0.1522089 -0.11285,0.4870686 -0.32986,1.0089277 -0.63802,1.2655085 -1.38455,2.3657616 -2.23958,3.3051081 -0.85938,0.9306488 -1.97917,1.3916244 -3.36806,1.3916244 -1.26302,0 -2.2309,-0.4435803 -2.89931,-1.3394385 -1.05468,1.7177864 -2.32638,3.157248 -3.81944,4.31403581 -1.49306,1.14809017 -3.11632,1.72213519 -4.86111,1.72213519 z m 0.10417,-0.66102155 c 1.82725,0 3.63715,-0.89585824 5.43402,-2.69627235 0.52084,-0.5218592 0.99393,-1.0698113 1.42361,-1.6525541 0.42535,-0.5783939 0.81598,-1.1654854 1.1632,-1.7569258 -0.48611,-0.5566498 -0.83333,-1.1567879 -1.04167,-1.8091118 -0.20833,-0.6610216 -0.3125,-1.2916015 -0.3125,-1.8960883 0,-0.9262998 0.16493,-1.7569258 0.50347,-2.4875288 0.33421,-0.730603 0.80296,-1.095904 1.40625,-1.095904 0.29948,0 0.59028,0.152209 0.86806,0.452278 0.27778,0.304418 0.45139,0.774091 0.52083,1.40902 0.11285,-0.52186 0.17361,-1.082858 0.17361,-1.687345 0,-1.413369 -0.26041,-2.539715 -0.78125,-3.374689 -0.52083,-0.843673 -1.40191,-1.269858 -2.63888,-1.269858 -0.74219,0 -1.50608,0.291372 -2.29167,0.869766 -0.78993,0.582742 -1.52778,1.282903 -2.22222,2.104832 -0.68577,0.81323 -1.28473,1.648205 -1.80556,2.504924 -0.52083,0.861067 -0.9158,1.574275 -1.18055,2.1396221 -0.63803,1.3829268 -1.09375,2.6092959 -1.37153,3.6878048 -0.27778,1.078509 -0.41667,2.0309019 -0.41667,2.8528301 0,1.1959273 0.2474,2.1135297 0.74653,2.74845834 0.50781,0.63492866 1.11545,0.95674181 1.82292,0.95674181 z m 26.82291,-0.12176714 c -1.07639,0 -1.92708,-0.33485963 -2.55208,-1.00892772 -0.61632,-0.66971929 -0.92014,-1.50469399 -0.92014,-2.50492399 0,-0.4870686 0.0911,-1.0480672 0.27778,-1.6873447 0.52083,-1.6438564 1.34548,-3.2790151 2.48264,-4.9054762 1.14583,-1.6221124 2.09201,-3.2355264 2.84722,-4.8358954 0.25174,-0.521859 0.38194,-0.991532 0.38194,-1.409019 0,-0.404441 -0.12152,-0.70451 -0.36458,-0.904556 -0.24305,-0.208744 -0.53385,-0.313116 -0.86805,-0.313116 -0.48612,0 -1.09375,0.200046 -1.82292,0.591441 -0.72049,0.382696 -1.54514,1.113299 -2.48264,2.191808 -0.55556,0.674068 -1.19358,1.495997 -1.90972,2.470134 -0.70747,0.974137 -1.28472,1.8526 -1.73611,2.6266908 -0.74219,1.2785549 -1.41493,2.5571099 -2.01389,3.8443625 -0.59028,1.2872526 -1.11111,2.4701334 -1.5625,3.5486424 -0.37327,0.8610676 -0.82466,1.40901973 -1.35417,1.652554 -0.52083,0.24353428 -1.02431,0.34790612 -1.51042,0.3131155049 -0.48611,-0.0347906149 -0.85937,-0.0347906149 -1.11111,0 1.04167,-2.0526461049 2.06597,-4.2140128049 3.07292,-6.4884490049 1.00694,-2.2831339 1.86632,-4.5619192 2.58681,-6.8363552 0.3342,-1.043718 0.61197,-2.056995 0.83333,-3.044178 0.21701,-0.995882 0.3125,-1.643857 0.27778,-1.948275 v -0.104371 c 0,-0.300069 0.14757,-0.374 0.45139,-0.226139 0.48611,0.269627 0.82031,0.656672 1.00694,1.165485 0.18229,0.500115 0.27778,1.061114 0.27778,1.687345 0,0.708858 -0.0955,1.469903 -0.27778,2.278785 -0.18663,0.800184 -0.41233,1.522089 -0.67708,2.157018 0.48611,-0.66972 1.00694,-1.356834 1.5625,-2.052646 0.56423,-0.695813 1.18489,-1.356834 1.85764,-1.983065 0.78559,-0.787138 1.62326,-1.469904 2.51736,-2.052646 0.90277,-0.578394 1.875,-0.869766 2.91666,-0.869766 1.00695,0 1.74045,0.226139 2.20486,0.678417 0.47309,0.452278 0.71181,1.052416 0.71181,1.791717 0,0.791486 -0.22569,1.687344 -0.67708,2.696272 -0.48611,1.14809 -1.07639,2.304878 -1.77084,3.461666 -0.68576,1.1611366 -1.31076,2.278785 -1.875,3.3572939 -0.10416,0.2348367 -0.27777,0.5827428 -0.52083,1.0437184 -0.24306,0.4653244 -0.46441,0.9741371 -0.65972,1.5307869 -0.0694,0.2696272 -0.14757,0.5392545 -0.2257,0.8175793 -0.0694,0.2783249 -0.10416,0.5696963 -0.10416,0.8697653 0,0.3739991 0.0781,0.7219052 0.24305,1.0437184 0.17361,0.31311548 0.50347,0.46967323 0.98959,0.46967323 0.63368,0 1.24131,-0.2130925 1.82291,-0.64362633 0.57726,-0.426185 1.06771,-0.8871606 1.4757,-1.3742291 0.86805,-0.9393465 1.65798,-1.9743672 2.37847,-3.1137597 0.72917,-1.1350437 1.44965,-2.3353198 2.17014,-3.6008283 0.10416,-0.1478601 0.17361,-0.226139 0.20833,-0.226139 0.14757,0 0.2257,0.1696043 0.2257,0.5044639 0,0.2217901 -0.0347,0.3913944 -0.10417,0.5044638 -0.67274,1.2307179 -1.38455,2.4353428 -2.13542,3.6182236 -0.74219,1.1741831 -1.65798,2.2961804 -2.74305,3.3746893 -0.48611,0.4870686 -1.05035,0.91760239 -1.68403,1.28725263 -0.625,0.36965025 -1.33247,0.55664978 -2.11806,0.55664978 z m 9.46615,0.12176714 c -0.78993,0 -1.51042,-0.15655775 -2.17014,-0.46967325 -0.65104,-0.32181315 -1.17621,-0.87846293 -1.57986,-1.6699494 -0.30382,-0.6697192 -0.45139,-1.3959732 -0.45139,-2.1744132 0,-0.8219281 0.14757,-1.5873216 0.45139,-2.2961803 0.28646,-0.6349286 0.61632,-1.2002761 0.98958,-1.6873446 0.38195,-0.4870686 0.79861,-0.7653935 1.25,-0.8349747 0.3342,-0.7393005 0.84202,-1.7264837 1.52778,-2.9572017 0.69444,-1.239416 1.48004,-2.474482 2.36111,-3.7052 0.87674,-1.226369 1.70573,-2.217902 2.48264,-2.974598 0.18229,-0.18265 0.50781,-0.491417 0.97222,-0.921951 0.47309,-0.426185 1.01563,-0.843672 1.63195,-1.252462 0.61198,-0.417487 1.18489,-0.661021 1.71875,-0.730603 0.10416,-0.03479 0.24739,-0.05219 0.43403,-0.05219 0.45138,0 0.78559,0.11307 1.00694,0.330511 0.23003,0.22179 0.34722,0.48272 0.34722,0.782789 0,0.304418 -0.11719,0.604487 -0.34722,0.904556 -0.22135,0.291371 -0.57292,0.534906 -1.05903,0.730603 -0.18663,0.03479 -0.46007,0.09567 -0.81597,0.173953 -0.34722,0.06958 -0.85938,0.104372 -1.52778,0.104372 -0.2691,0.373999 -0.3993,0.895858 -0.3993,1.565577 0,0.743649 0.12152,1.582973 0.36458,2.522319 0.24306,0.930649 0.48611,1.835205 0.72917,2.713668 0.24305,0.869765 0.36458,1.6090659 0.36458,2.2092039 0.0694,1.3829268 -0.15191,2.7745513 -0.65972,4.1748734 -0.49913,1.3916244 -1.28472,2.5745052 -2.36111,3.5486423 l -0.78125,0.5566498 c 0.10416,0.0347906 0.21267,0.0652324 0.32986,0.0869765 0.11284,0.026093 0.22569,0.0347906 0.32986,0.0347906 0.63368,0 1.34548,-0.1956972 2.13542,-0.5914404 0.78559,-0.3913943 1.47569,-0.8871606 2.06597,-1.4786009 0.90278,-0.8567188 1.67534,-1.7743212 2.32639,-2.7484583 0.65972,-0.9741371 1.26736,-1.9830649 1.82291,-3.0267832 0.0347,-0.1478601 0.12587,-0.226139 0.27778,-0.226139 0.18229,0 0.27778,0.1522089 0.27778,0.452278 0,0.1522089 -0.0521,0.3218131 -0.15625,0.5044638 -0.56858,1.0437184 -1.25868,2.1352738 -2.06597,3.2703175 -0.79861,1.1393925 -1.62761,2.1004831 -2.48264,2.8876207 -0.67275,0.5914404 -1.38889,1.03502067 -2.15278,1.32204321 -0.76389,0.27832489 -1.40625,0.41748734 -1.92708,0.41748734 -0.37327,0 -0.67275,-0.03479061 -0.90278,-0.10437184 -0.22136,-0.0782789 -0.42535,-0.19569718 -0.60764,-0.34790611 -0.52083,0.26962724 -1.11111,0.49576621 -1.77083,0.67841692 -0.65105,0.18265071 -1.31077,0.27832489 -1.97917,0.27832489 z m 2.11806,-1.46120565 c 0.75086,-0.5218592 1.34114,-1.1915785 1.77083,-2.0178555 0.42535,-0.8219282 0.75087,-1.6960423 0.97222,-2.6266911 0.29948,-1.1219972 0.47743,-2.2831339 0.5382,-3.4790612 0.0564,-1.1915787 0.0868,-2.2700877 0.0868,-3.2355267 v -1.96567 c 0,-0.787137 0.0955,-1.587321 0.29514,-2.400552 0.20833,-0.821928 0.42535,-1.326392 0.65972,-1.513391 -0.56857,0.22179 -1.18923,0.713207 -1.85764,1.478601 -0.67274,0.765393 -1.34548,1.6656 -2.01389,2.696272 -0.67274,1.021974 -1.28038,2.017855 -1.82291,2.991993 -0.53386,0.965439 -0.95052,1.765623 -1.25,2.4005517 0.70312,-0.034791 1.18489,0.1652554 1.44097,0.5914404 0.26476,0.4305338 0.33854,0.7393005 0.22569,0.9219512 -0.29079,-0.069581 -0.49479,-0.1043719 -0.60764,-0.1043719 -0.55555,0 -1.07638,0.2043949 -1.5625,0.6088357 -0.48611,0.3739991 -0.89843,0.9219512 -1.23263,1.6525541 -0.33855,0.7306028 -0.50348,1.4351127 -0.50348,2.104832 0,0.8958582 0.26042,1.5481821 0.78125,1.9656695 0.52084,0.40878968 1.13282,0.6088357 1.84028,0.6088357 0.82031,0 1.56684,-0.22613897 2.23959,-0.6784169 z m 0,0"
         style="fill:#ffffff;fill-opacity:1;fill-rule:nonzero;stroke:none"
         aria-label="Tî‚¦anslations"
         transform="matrix(0.89999996,0,0,0.89823084,33.793816,118.58272)" /><path
         id="path4"
         d="m 178.1909,118.62423 c 0.88101,-0.0301 1.76258,-0.10142 2.63477,-0.24513 2.85481,-0.47039 5.62068,-1.49269 8.09909,-2.99462 1.81358,-1.09932 3.47137,-2.45465 4.92039,-4.00553 1.47893,-1.58288 2.51609,-3.12387 3.22493,-4.34847 1.86283,-3.21823 2.536,-6.16372 2.58068,-6.36091 0.12274,-0.5418 0.42886,-2.183379 0.17761,-4.955604 -0.26228,3.214699 -0.64461,3.836205 -0.84229,4.812954 -0.0304,0.15013 -0.47189,3.14251 -2.19627,6.34704 -0.66206,1.23037 -1.6512,2.77336 -3.10068,4.36087 -1.41848,1.55356 -3.05462,2.90914 -4.84918,4.01062 -2.4518,1.50525 -5.19405,2.53425 -8.03078,3.03726 -0.86569,0.15351 -1.73867,0.27884 -2.61827,0.34151 z"
         style="fill:#ffffff;fill-opacity:1;fill-rule:nonzero;stroke:none"
         transform="matrix(3.3658794,0.48771028,-0.48867079,3.3592632,-456.23162,-399.98471)"
         clip-path="url(#clipPath5)" /><path
         id="path6"
         d="m 78.887749,27.298176 c -0.712349,3.145729 -1.178284,3.707296 -1.511536,4.646488 -0.05123,0.144344 -0.909866,3.044636 -3.068321,5.974426 -0.367439,0.49876 -0.791847,1.081929 -1.312134,1.6595 -0.06562,0.07289 -0.13266,0.145985 -0.200897,0.219689 0.07552,0.04641 0.08242,0.02798 0.158447,0.07351 0.06497,-0.06763 0.128868,-0.134666 0.191658,-0.20158 0.529801,-0.564571 1.035965,-1.069984 1.418251,-1.556511 2.29744,-2.923855 3.378845,-5.74527 3.450844,-5.9342 0.197807,-0.519119 0.732071,-2.101332 0.87368,-4.881317 l 8e-6,-4e-6 z"
         style="fill:#ffffff;fill-opacity:1;fill-rule:nonzero;stroke:none"
         transform="matrix(3.4011681,0,0,3.3944823,-102.49993,-70.186109)"
         clip-path="url(#clipPath7)" /><path
         id="path8"
         d="m 80.501534,27.872149 c -1.073388,3.041528 -1.601479,3.545093 -2.041703,4.439153 -0.06767,0.137406 -1.257812,2.918148 -3.74237,5.577011 -0.422959,0.452637 -0.912308,0.982487 -1.496239,1.495629 -0.07365,0.06476 -0.148735,0.129562 -0.225082,0.194831 0.06961,0.05487 0.07861,0.03738 0.148826,0.09144 0.07239,-0.05961 0.143654,-0.118763 0.213799,-0.177922 0.591865,-0.499122 1.153381,-0.942234 1.58966,-1.380996 2.62191,-2.636799 4.024132,-5.31329 4.117623,-5.492569 0.256843,-0.492588 0.971504,-2.001925 1.435486,-4.746575 z"
         style="fill:#ffffff;fill-opacity:1;fill-rule:nonzero;stroke:none"
         transform="matrix(3.4011681,0,0,3.3944823,-102.49993,-70.186109)"
         clip-path="url(#clipPath9)" /><path
         id="path10"
         d="m 79.672264,34.358677 c -0.178085,0.786434 -0.340774,1.411354 -0.489838,1.921043 -0.149063,0.50969 -0.2845,0.904148 -0.408096,1.229653 -0.123596,0.325504 -0.235336,0.582054 -0.337013,0.815925 -0.101677,0.233872 -0.193283,0.445069 -0.276596,0.679867 -8.01e-4,0.0023 -0.0018,0.0052 -0.003,0.0088 -0.0012,0.0036 -0.0026,0.0078 -0.0042,0.01275 -0.0032,0.0098 -0.0072,0.02223 -0.01201,0.03717 -0.0096,0.02989 -0.02253,0.06987 -0.03883,0.119293 -0.0326,0.09884 -0.07877,0.23542 -0.139488,0.404407 -0.121429,0.337979 -0.30101,0.805603 -0.546448,1.360272 -0.490867,1.109341 -1.24514,2.56686 -2.324363,4.031757 -0.36744,0.49876 -0.791848,1.081929 -1.312134,1.6595 -0.0164,0.01822 -0.0329,0.03646 -0.0472,0.05418 -0.0143,0.01772 -0.02641,0.03494 -0.03404,0.05112 -0.0038,0.0081 -0.0065,0.01592 -0.0078,0.02343 -0.0013,0.0075 -0.0012,0.01469 6.18e-4,0.02148 0.0018,0.0068 0.0053,0.0132 0.01075,0.01915 0.0055,0.0059 0.0129,0.01144 0.0226,0.01642 0.0097,0.005 0.01918,0.0083 0.02848,0.01012 0.0093,0.0018 0.0184,0.0022 0.02734,0.0014 0.0089,-8.69e-4 0.01772,-0.003 0.02635,-0.0061 0.0086,-0.0032 0.01713,-0.0074 0.02551,-0.0124 0.01676,-0.01007 0.03306,-0.02348 0.04909,-0.03856 0.01603,-0.01507 0.0318,-0.03181 0.0475,-0.04854 0.529801,-0.564571 1.035965,-1.069985 1.418251,-1.556511 1.14872,-1.461926 1.993431,-2.898243 2.55996,-3.992695 0.283264,-0.547226 0.496986,-1.008987 0.644394,-1.345749 0.0737,-0.168381 0.130821,-0.305511 0.171776,-0.406452 0.02047,-0.05047 0.0369,-0.09189 0.04934,-0.12365 0.0062,-0.01588 0.01144,-0.02934 0.01567,-0.04031 0.0042,-0.01097 0.0075,-0.01944 0.0097,-0.02535 0.04945,-0.12978 0.119934,-0.326004 0.20005,-0.590775 0.08012,-0.26477 0.169868,-0.598091 0.257866,-1.00206 0.175995,-0.807941 0.344963,-1.898491 0.415764,-3.288482 l 5.3e-5,-1.07e-4 z m 0,0 v 4e-6 c -0.0708,1.389991 -0.239769,2.480545 -0.415764,3.288482 -0.088,0.403969 -0.177749,0.73729 -0.257866,1.00206 -0.08012,0.264771 -0.150596,0.460995 -0.20005,0.590775 -0.0023,0.0059 -0.0055,0.01438 -0.0097,0.02535 -0.0042,0.01097 -0.0094,0.02443 -0.01566,0.04031 -0.01244,0.03176 -0.02887,0.07318 -0.04934,0.12365 -0.04095,0.100941 -0.09807,0.238071 -0.171776,0.406452 -0.147408,0.336765 -0.36113,0.798523 -0.644394,1.345749 -0.566528,1.094452 -1.41124,2.530769 -2.55996,3.992695 -0.382286,0.486526 -0.888458,0.99194 -1.418251,1.556511 -0.0157,0.01673 -0.03146,0.03347 -0.0475,0.04854 -0.01603,0.01507 -0.03233,0.02848 -0.04909,0.03856 -0.0084,0.005 -0.01688,0.0092 -0.02551,0.0124 -0.0086,0.0032 -0.01741,0.0053 -0.02635,0.0061 -0.0089,8.66e-4 -0.01805,4.81e-4 -0.02734,-0.0014 -0.0093,-0.0018 -0.01878,-0.0051 -0.02848,-0.01012 -0.0097,-0.005 -0.01714,-0.01047 -0.0226,-0.01642 -0.0055,-0.0059 -0.009,-0.01235 -0.01075,-0.01915 -0.0018,-0.0068 -0.0019,-0.01398 -6.18e-4,-0.02148 0.0013,-0.0075 0.004,-0.01534 0.0078,-0.02343 0.0076,-0.01618 0.01974,-0.03339 0.03404,-0.05112 0.0143,-0.01772 0.03079,-0.03596 0.0472,-0.05418 0.520287,-0.577571 0.944687,-1.16074 1.312134,-1.6595 1.079223,-1.464897 1.833496,-2.922416 2.324363,-4.031757 0.245438,-0.554669 0.425019,-1.022293 0.546448,-1.360272 0.06071,-0.168987 0.106888,-0.305568 0.139488,-0.404407 0.0163,-0.04942 0.0292,-0.08941 0.03883,-0.119293 0.0048,-0.01494 0.0088,-0.02736 0.01201,-0.03717 0.0016,-0.0049 0.003,-0.0092 0.0042,-0.01275 0.0012,-0.0036 0.0022,-0.0065 0.003,-0.0088 0.08331,-0.234798 0.174919,-0.445995 0.276596,-0.679867 0.101677,-0.233871 0.213425,-0.490421 0.337013,-0.815925 0.123589,-0.325505 0.259033,-0.71996 0.408096,-1.229653 0.149064,-0.509689 0.311753,-1.134613 0.489838,-1.921043 l -6.1e-5,1.03e-4 z"
         style="fill:#ff0000;fill-opacity:1;fill-rule:nonzero;stroke:none"
         transform="matrix(3.4011681,0,0,3.3944823,-100.11911,-70.186109)"
         clip-path="url(#clipPath11)" /><path
         id="path12"
         d="m 80.233559,30.090944 c -0.799965,1.937144 -1.159767,2.245947 -1.475838,2.811129 -0.04858,0.08686 -0.915443,1.850811 -2.618095,3.491646 -0.289856,0.279331 -0.625412,0.60651 -1.021775,0.919628 -0.05,0.03952 -0.100921,0.07902 -0.152687,0.118767 0.0433,0.03798 0.04974,0.02693 0.09346,0.06439 0.049,-0.03622 0.09726,-0.07217 0.144783,-0.108185 0.401039,-0.303753 0.780472,-0.572189 1.078499,-0.842064 1.791039,-1.621849 2.791962,-3.310936 2.858727,-3.424087 0.183418,-0.310906 0.698494,-1.266011 1.092918,-3.031233 l 8e-6,1.1e-5 z"
         style="fill:#ffffff;fill-opacity:1;fill-rule:nonzero;stroke:none"
         transform="matrix(3.4011681,0,0,3.3944823,-102.49993,-70.186109)"
         clip-path="url(#clipPath13)" /><path
         id="path14"
         d="m 77.434036,28.85556 c -0.113624,2.092739 -0.350929,2.503233 -0.462089,3.141177 -0.01712,0.09804 -0.251175,2.049497 -1.31469,4.161443 -0.181038,0.359539 -0.389389,0.779343 -0.659759,1.206013 -0.03411,0.05384 -0.06907,0.107979 -0.104767,0.162613 0.05344,0.02151 0.05586,0.0089 0.109504,0.02983 0.03424,-0.05041 0.06788,-0.1003 0.100815,-0.150013 0.277878,-0.41938 0.547066,-0.798283 0.73896,-1.151596 1.153199,-2.123284 1.538575,-4.048477 1.564118,-4.177346 0.07017,-0.354093 0.240044,-1.425851 0.0279,-3.22212 l 7e-6,-2e-6 z"
         style="fill:#ffffff;fill-opacity:1;fill-rule:nonzero;stroke:none"
         transform="matrix(3.4011681,0,0,3.3944823,-102.49993,-70.186109)"
         clip-path="url(#clipPath15)" /></g></g></svg>
